<?xml version="1.0" standalone="no"?>
<!DOCTYPE svg PUBLIC "-//W3C//DTD SVG 20010904//EN"
 "http://www.w3.org/TR/2001/REC-SVG-20010904/DTD/svg10.dtd">
<svg version="1.0" xmlns="http://www.w3.org/2000/svg"
 width="512.000000pt" height="512.000000pt" viewBox="0 0 512.000000 512.000000"
 preserveAspectRatio="xMidYMid meet">
<metadata>
Created by potrace 1.14, written by Peter Selinger 2001-2017
</metadata>
<g transform="translate(0.000000,512.000000) scale(0.100000,-0.100000)"
fill="#000000" stroke="none">
<path d="M1685 4586 c-298 -70 -514 -417 -513 -826 0 -486 282 -857 639 -845
297 10 540 282 599 671 13 85 16 258 5 314 -4 19 -8 47 -10 63 -10 70 -41 161
-92 265 -46 95 -68 126 -132 191 -82 84 -141 124 -230 154 -67 23 -197 29
-266 13z"/>
<path d="M3225 4588 c-52 -10 -162 -58 -198 -87 -120 -96 -196 -198 -255 -341
-157 -384 -59 -888 216 -1118 288 -239 679 -129 857 242 79 166 104 289 100
496 -3 158 -14 222 -57 345 -115 328 -385 517 -663 463z"/>
<path d="M520 3298 c-172 -53 -299 -200 -349 -405 -26 -104 -22 -275 8 -388
40 -148 109 -273 208 -372 315 -315 756 -195 870 237 26 97 23 280 -6 392 -40
156 -111 281 -222 389 -146 142 -341 198 -509 147z"/>
<path d="M4356 3304 c-241 -56 -459 -321 -504 -614 -9 -58 -8 -211 1 -273 10
-63 46 -162 82 -223 37 -64 128 -152 190 -186 292 -157 672 51 799 438 48 147
57 332 22 464 -77 291 -323 455 -590 394z"/>
<path d="M2537 2794 c-1 -1 -40 -4 -87 -7 -158 -12 -346 -74 -506 -168 -112
-67 -173 -116 -289 -233 -170 -172 -278 -345 -395 -631 -13 -32 -59 -177 -64
-205 -3 -14 -10 -43 -15 -65 -6 -22 -12 -56 -16 -75 -3 -19 -8 -48 -12 -65 -6
-33 -6 -199 1 -230 49 -222 152 -381 314 -488 60 -39 156 -84 164 -76 2 1 13
-3 26 -10 13 -7 65 -14 115 -16 99 -5 165 7 298 50 41 14 86 28 100 31 167 35
211 39 394 39 210 0 302 -14 497 -74 134 -41 201 -52 293 -46 118 6 212 42
318 118 160 117 260 280 293 484 41 245 -102 718 -311 1029 -224 332 -553 561
-891 619 -77 13 -220 25 -227 19z"/>
</g>
</svg>
